<?xml version="1.0" encoding="UTF-8"?>
<svg width="17px" height="26px" viewBox="0 0 17 26" version="1.1" xmlns="http://www.w3.org/2000/svg" xmlns:xlink="http://www.w3.org/1999/xlink">
    <!-- Generator: Sketch 45.2 (43514) - http://www.bohemiancoding.com/sketch -->
    <title>gripper-icon</title>
    <desc>Created with Sketch.</desc>
    <defs></defs>
    <g id="Page-1" stroke="none" stroke-width="1" fill="none" fill-rule="evenodd">
        <path d="M6.498,3.26 C6.498,5.054 5.043,6.509 3.249,6.509 C1.455,6.509 0,5.054 0,3.26 C0,1.466 1.455,0.011 3.249,0.011 C5.043,0.011 6.498,1.465 6.498,3.26 Z M12.995,6.509 C14.79,6.509 16.244,5.054 16.244,3.26 C16.244,1.466 14.79,0.011 12.995,0.011 C11.2,0.011 9.746,1.466 9.746,3.26 C9.746,5.054 11.2,6.509 12.995,6.509 Z M3.25,9.756 C1.456,9.756 0.001,11.213 0.001,13.005 C0.001,14.802 1.455,16.253 3.249,16.253 C5.043,16.253 6.498,14.802 6.498,13.005 C6.498,11.213 5.044,9.756 3.25,9.756 Z M12.995,16.253 C14.789,16.253 16.243,14.802 16.243,13.005 C16.243,11.213 14.789,9.756 12.995,9.756 C11.201,9.756 9.746,11.213 9.746,13.005 C9.746,14.802 11.201,16.253 12.995,16.253 Z M3.249,19.502 C1.455,19.502 0,20.956 0,22.751 C0,24.546 1.455,26 3.249,26 C5.043,26 6.498,24.546 6.498,22.751 C6.498,20.956 5.043,19.502 3.249,19.502 Z M12.995,19.502 C11.2,19.502 9.746,20.956 9.746,22.751 C9.746,24.546 11.2,26 12.995,26 C14.79,26 16.244,24.546 16.244,22.751 C16.244,20.956 14.79,19.502 12.995,19.502 Z" id="gripper-icon" fill="#FFFFFF"></path>
    </g>
</svg>