<?xml version="1.0" encoding="UTF-8"?>
<svg width="41px" height="41px" viewBox="0 0 41 41" version="1.1" xmlns="http://www.w3.org/2000/svg" xmlns:xlink="http://www.w3.org/1999/xlink">
    <!-- Generator: Sketch 45.2 (43514) - http://www.bohemiancoding.com/sketch -->
    <title>close</title>
    <desc>Created with Sketch.</desc>
    <defs></defs>
    <g id="Page-1" stroke="none" stroke-width="1" fill="none" fill-rule="evenodd">
        <path d="M23.2827863,20.4841858 L28.8800072,14.886965 L26.0814066,12.0883644 L20.4841858,17.6855853 L14.8869709,12.0883644 L12.0883624,14.886965 L17.6855774,20.4841858 L12.0883624,26.0814007 L14.8869709,28.8800092 L20.4841858,23.2827942 L26.0814066,28.8800092 L28.8800072,26.0814007 L23.2827863,20.4841858 L23.2827863,20.4841858 Z M6.49114753,34.4772241 C14.2192891,42.2053651 26.7490726,42.2053651 34.477228,34.4772241 C42.2053637,26.7490825 42.2053637,14.219299 34.477228,6.49114358 C26.7490726,-1.23699208 14.2192891,-1.23699208 6.49114753,6.49114358 C-1.23699346,14.219299 -1.23699346,26.7490825 6.49114753,34.4772241 L6.49114753,34.4772241 Z M9.28975598,31.6786156 C15.4722685,37.8611301 25.4961031,37.8611301 31.6786077,31.6786156 C37.8611321,25.4961031 37.8611321,15.4722685 31.6786077,9.28976389 C25.4961031,3.10723954 15.4722685,3.10723954 9.28975598,9.28976389 C3.10724152,15.4722685 3.10724152,25.4961031 9.28975598,31.6786156 L9.28975598,31.6786156 Z" id="close" fill="#FFFFFF"></path>
    </g>
</svg>