<?xml version="1.0" encoding="UTF-8"?>
<svg width="241px" height="118px" viewBox="0 0 241 118" version="1.1" xmlns="http://www.w3.org/2000/svg" xmlns:xlink="http://www.w3.org/1999/xlink">
    <!-- Generator: Sketch 45.2 (43514) - http://www.bohemiancoding.com/sketch -->
    <title>planet-logo</title>
    <desc>Created with Sketch.</desc>
    <defs></defs>
    <g id="Page-1" stroke="none" stroke-width="1" fill="none" fill-rule="evenodd">
        <g id="planet-logo" transform="translate(0.000000, -1.000000)" fill-rule="nonzero">
            <g id="shapes" fill="#009DA5">
                <path d="M58.64,118.28 C28.3827364,118.268494 3.10199638,95.2378204 0.278223942,65.1126076 C-2.54554849,34.9873949 18.0148852,7.65982062 47.742951,2.02561852 C77.4710169,-3.60858358 106.604948,14.3006822 115,43.37 C115.131197,44.3990279 114.494938,45.3707774 113.499298,45.6620021 C112.503658,45.9532268 111.44402,45.477527 111,44.54 C103.463383,18.4391173 77.8347005,1.89212277 50.9451082,5.7659445 C24.0555159,9.63976622 4.13973441,32.7480776 4.27707946,59.9149288 C4.41442451,87.0817801 24.5628353,109.987542 51.4902211,113.589286 C78.417607,117.19103 103.877674,100.385751 111.15,74.21 C111.513117,73.1570437 112.632127,72.5676695 113.705831,72.8638636 C114.779534,73.1600578 115.4381,74.2397976 115.21,75.33 C108.107101,100.704857 84.9902182,118.256035 58.64,118.28 Z" id="Shape"></path>
                <path d="M240.12,73.16 C240.148441,74.5492776 239.33346,75.8176561 238.058009,76.369133 C236.782558,76.92061 235.300224,76.645541 234.307544,75.6731792 C233.314864,74.7008173 233.009203,73.2244871 233.534189,71.9379062 C234.059176,70.6513252 235.310431,69.8102911 236.7,69.81 C237.598165,69.7993353 238.463637,70.146615 239.105313,70.7751577 C239.74699,71.4037004 240.112091,72.2618063 240.12,73.16" id="Shape"></path>
            </g>
            <g id="text" transform="translate(40.000000, 31.000000)" fill="#FFFFFF">
                <path d="M0.84,10.83 L1,10.83 C4.3137085,10.83 7,13.5162915 7,16.83 L7.12,16.83 C9.86402144,12.9020534 14.389646,10.6054678 19.18,10.71 C30.68,10.71 36.74,19.95 36.74,29.01 C36.74,37.58 30.31,46.39 19.61,46.39 C12.51,46.39 8.96,42.78 7.68,40.64 L7.54,40.64 L7.54,58.21 C3.84521502,58.21 0.85,55.214785 0.85,51.52 L0.85,10.83 L0.84,10.83 Z M18.73,16.48 C12.06,16.48 7.41,22.23 7.41,28.48 C7.41,35.33 12.49,40.54 18.91,40.54 C22.0255352,40.5175764 24.9996272,39.2363457 27.1560747,36.9876135 C29.3125223,34.7388814 30.4680743,31.7137409 30.36,28.6 C30.36,22.54 25.65,16.48 18.73,16.48 L18.73,16.48 Z" id="Shape"></path>
                <polygon id="Shape" points="49.51 45.49 43.15 45.49 43.15 0.21 49.51 0.21"></polygon>
                <path d="M85.56,45.49 L85.56,40.23 L85.44,40.23 C82.99,44.39 78.53,46.35 73.94,46.35 C62.5,46.35 55.94,37.6 55.94,28.66 C55.94,20.4 61.75,10.66 73.94,10.66 C78.65,10.66 83,12.66 85.44,16.35 L85.56,16.35 L85.56,11.59 L91.92,11.59 L91.92,45.49 L85.56,45.49 L85.56,45.49 Z M73.93,16.49 C66.1,16.49 62.3,23.28 62.3,28.61 C62.3,34.73 67.13,40.54 73.87,40.54 C77.0223633,40.5321251 80.0414373,39.2674621 82.2582673,37.02623 C84.4750973,34.784998 85.7066346,31.7522606 85.68,28.6 C85.68,21.38 80.48,16.48 73.93,16.48 L73.93,16.49 Z" id="Shape"></path>
                <path d="M123.8,45.49 L123.8,27.07 C123.8,24.44 123.8,16.48 115.36,16.48 C110.04,16.48 106.43,20.21 106.43,27.01 L106.43,45.49 L100.07,45.49 L100.07,11.59 L106,11.59 L106,15.2 L106.12,15.2 C108.501518,12.199593 112.172403,10.5164848 116,10.67 C121.26,10.67 125.55,12.93 128,16.73 C129.498833,19.37478 130.239308,22.3816618 130.14,25.42 L130.14,45.49 L123.8,45.49 Z" id="Shape"></path>
                <path d="M185.24,45.49 L185.24,45.49 C181.727469,45.49 178.88,42.642531 178.88,39.13 L178.88,17.4 L174.29,17.4 L174.29,11.59 L178.88,11.59 L178.88,0.21 L178.88,0.21 C182.392531,0.21 185.24,3.05746899 185.24,6.57 L185.24,11.57 L190.81,11.57 L190.81,17.4 L185.24,17.4 L185.24,45.49 Z" id="Shape"></path>
                <path d="M171.22,28.05 C171.101259,18.4844281 163.250572,10.8262588 153.685,10.945 C144.119428,11.0637412 136.461259,18.9144281 136.58,28.48 C136.58,29.06 136.606667,29.6333333 136.66,30.2 L136.66,30.2 C137.76295,39.4637009 145.671476,46.4063007 155,46.3 C160.742102,46.3336294 166.182336,43.7314578 169.76,39.24 L164.76,36.3 C162.256492,39.0647556 158.689627,40.6261689 154.96,40.59 C149.78,40.59 144.22,37.44 142.96,31.3 L171,31.3 C171.1,30.87 171.22,29.15 171.22,28.05 Z M143,26.4 C143.514151,20.7333011 148.265024,16.3939693 153.955,16.3939693 C159.644976,16.3939693 164.395849,20.7333011 164.91,26.4 L143,26.4 Z" id="Shape"></path>
            </g>
        </g>
    </g>
</svg>