<?xml version="1.0" encoding="UTF-8"?>
<svg width="1061px" height="356px" viewBox="0 0 1061 356" version="1.1" xmlns="http://www.w3.org/2000/svg" xmlns:xlink="http://www.w3.org/1999/xlink">
    <!-- Generator: Sketch 45.2 (43514) - http://www.bohemiancoding.com/sketch -->
    <title>raster-foundry-logo</title>
    <desc>Created with Sketch.</desc>
    <defs></defs>
    <g id="Page-1" stroke="none" stroke-width="1" fill="none" fill-rule="evenodd">
        <g id="raster-foundry-logo" transform="translate(0.000000, -1.000000)">
            <g id="type" transform="translate(357.000000, 3.000000)" fill="#FFFFFF">
                <path d="M82.2324,47.3542 C82.2324,29.6462 73.7404,20.7962 56.7534,20.7962 L24.5844,20.7962 L24.5844,74.5602 L57.1874,74.5602 C65.8254,74.5602 72.1564,72.0722 76.1904,67.1082 C80.2154,62.1442 82.2324,55.5582 82.2324,47.3542 Z M24.5844,95.2832 L24.5844,147.9672 L0.6224,147.9672 L0.6224,0.0702 L56.7534,0.0702 C90.1484,0.0702 106.8444,15.7552 106.8444,47.1322 C106.8444,68.1522 98.7854,82.4042 82.6664,89.8852 L107.0614,147.9672 L80.7204,147.9672 L59.3444,95.2832 L24.5844,95.2832 Z" id="Fill-1"></path>
                <path d="M154.1328,100.0348 C144.1998,100.8958 139.2328,106.2928 139.2328,116.2298 C139.2328,126.1578 143.6228,131.1268 152.4038,131.1268 C159.6028,131.1268 167.2238,129.9758 175.2928,127.6698 L179.1738,126.3748 L179.1738,97.6608 L154.1328,100.0348 Z M202.4948,73.2608 L202.4948,122.4888 C202.6348,125.6568 203.4668,127.9968 204.9748,129.5038 C206.4868,131.0148 208.8258,131.9878 211.9938,132.4168 L211.3438,150.3418 C198.9658,150.3418 189.3948,147.6798 182.6298,142.3538 C171.1128,147.6798 159.5298,150.3418 147.8688,150.3418 C126.4198,150.3418 115.6938,138.8968 115.6938,116.0098 C115.6938,105.0748 118.6118,97.1598 124.4418,92.2638 C130.2728,87.3728 139.2328,84.4158 151.3258,83.4098 L179.1738,81.0308 L179.1738,73.2608 C179.1738,67.5078 177.9168,63.4778 175.3938,61.1718 C172.8758,58.8698 169.1738,57.7148 164.2778,57.7148 C155.0628,57.7148 143.5508,58.2928 129.7328,59.4428 L122.8238,59.8768 L121.9568,43.2518 C137.6488,39.5118 152.0768,37.6338 165.2498,37.6338 C178.4178,37.6338 187.9158,40.4778 193.7518,46.1648 C199.5768,51.8548 202.4948,60.8828 202.4948,73.2608 L202.4948,73.2608 Z" id="Fill-3"></path>
                <path d="M301.5537,62.2497 C284.5687,59.9487 272.2577,58.7927 264.6357,58.7927 C257.0047,58.7927 251.7087,59.6927 248.7627,61.4937 C245.8107,63.2947 244.3377,66.1357 244.3377,70.0207 C244.3377,73.9057 245.9547,76.6407 249.1957,78.2247 C252.4317,79.8127 260.0627,81.6477 272.0837,83.7317 C284.0957,85.8217 292.6267,89.0957 297.6637,93.5587 C302.7037,98.0177 305.2227,105.9377 305.2227,117.3047 C305.2227,128.6817 301.5877,137.0287 294.3177,142.3537 C287.0527,147.6797 276.4317,150.3417 262.4747,150.3417 C253.6877,150.3417 242.6097,149.1187 229.2207,146.6727 L222.5327,145.5897 L223.3947,125.9457 C240.6637,128.2477 253.1157,129.3977 260.7457,129.3977 C268.3717,129.3977 273.8077,128.4647 277.0477,126.5917 C280.2877,124.7187 281.9007,121.6277 281.9007,117.3047 C281.9007,112.9897 280.3607,110.0057 277.2647,108.3447 C274.1687,106.6927 266.7537,104.8927 255.0267,102.9467 C243.2927,101.0067 234.6897,97.9447 229.2207,93.7707 C223.7507,89.6017 221.0167,81.9757 221.0167,70.8877 C221.0167,59.8047 224.8007,51.5277 232.3547,46.0587 C239.9127,40.5897 249.5857,37.8547 261.3907,37.8547 C270.6057,37.8547 281.9007,39.0057 295.2897,41.3067 L301.9827,42.6027 L301.5537,62.2497 Z" id="Fill-5"></path>
                <path d="M380.0742,60.0934 L350.2762,60.0934 L350.2762,107.5884 C350.2762,116.3744 350.9272,122.2004 352.2212,125.0794 C353.5162,127.9634 356.8242,129.3984 362.1542,129.3984 L379.8572,128.7524 L380.9352,147.5344 C371.2922,149.4074 363.9502,150.3414 358.9142,150.3414 C346.6792,150.3414 338.2932,147.5344 333.7622,141.9204 C329.2272,136.3074 326.9602,125.7294 326.9602,110.1834 L326.9602,60.0934 L313.1422,60.0934 L313.1422,40.0114 L326.9602,40.0114 L326.9602,8.7024 L350.2762,8.7024 L350.2762,40.0114 L380.0742,40.0114 L380.0742,60.0934 Z" id="Fill-7"></path>
                <path d="M456.3936,85.7829 C456.3936,75.1339 454.7036,67.6849 451.3246,63.4389 C447.9396,59.1929 442.2146,57.0699 434.1556,57.0699 C426.0906,57.0699 420.2316,59.3039 416.5586,63.7619 C412.8896,68.2239 410.9786,75.5669 410.8386,85.7829 L456.3936,85.7829 Z M469.3496,128.5369 L475.3966,127.8869 L475.8256,145.3729 C459.4166,148.6849 444.8766,150.3419 432.2146,150.3419 C416.2356,150.3419 404.7576,145.9549 397.7776,137.1689 C390.7906,128.3919 387.3046,114.3629 387.3046,95.0699 C387.3046,56.7809 402.9186,37.6339 434.1556,37.6339 C464.3856,37.6339 479.4976,54.1189 479.4976,87.0789 L477.9866,103.9199 L411.0506,103.9199 C411.1956,112.8449 413.1346,119.3929 416.8856,123.5679 C420.6216,127.7469 427.6026,129.8319 437.8246,129.8319 C448.0396,129.8319 458.5506,129.3979 469.3496,128.5369 L469.3496,128.5369 Z" id="Fill-9"></path>
                <path d="M494.6162,147.9674 L494.6162,40.0114 L517.9322,40.0114 L517.9322,52.9674 C530.1622,45.0474 542.4002,39.9394 554.6342,37.6334 L554.6342,61.1714 C542.2512,63.6164 531.6782,66.7844 522.8962,70.6704 L518.1442,72.6114 L518.1442,147.9674 L494.6162,147.9674 Z" id="Fill-11"></path>
                <polygon id="Fill-13" points="0.6221 307.5641 0.6221 159.6711 92.3821 159.6711 92.3821 180.6101 24.5841 180.6101 24.5841 230.4841 80.9371 230.4841 80.9371 251.4271 24.5841 251.4271 24.5841 307.5641"></polygon>
                <path d="M125.8047,281.4411 C129.1117,287.1991 135.5877,290.0781 145.2307,290.0781 C154.8737,290.0781 161.3547,287.1991 164.6667,281.4411 C167.9747,275.6871 169.6307,266.2551 169.6307,253.1561 C169.6307,240.0651 167.8647,230.7771 164.3447,225.3031 C160.8157,219.8341 154.4457,217.0991 145.2307,217.0991 C136.0207,217.0991 129.6517,219.8341 126.1267,225.3031 C122.5977,230.7771 120.8357,240.0651 120.8357,253.1561 C120.8357,266.2551 122.4917,275.6871 125.8047,281.4411 M108.2017,211.2691 C115.6207,201.9151 127.9657,197.2351 145.2307,197.2351 C162.5057,197.2351 174.8447,201.9151 182.2597,211.2691 C189.6737,220.6281 193.3807,234.6631 193.3807,253.3731 C193.3807,272.0861 189.7837,286.1881 182.5867,295.6921 C175.3847,305.1911 162.9387,309.9431 145.2307,309.9431 C127.5277,309.9431 115.0767,305.1911 107.8847,295.6921 C100.6817,286.1881 97.0897,272.0861 97.0897,253.3731 C97.0897,234.6631 100.7877,220.6281 108.2017,211.2691" id="Fill-15"></path>
                <path d="M275.0596,199.6081 L298.3756,199.6081 L298.3756,307.5641 L275.0596,307.5641 L275.0596,300.8731 C264.5536,306.9201 254.8376,309.9431 245.9126,309.9431 C231.0836,309.9431 221.1566,305.9471 216.1156,297.9551 C211.0796,289.9671 208.5606,275.9711 208.5606,255.9621 L208.5606,199.6081 L232.0946,199.6081 L232.0946,256.1791 C232.0946,269.1341 233.1726,277.8391 235.3346,282.3021 C237.4926,286.7651 242.5326,288.9951 250.4476,288.9951 C258.2176,288.9951 265.3486,287.5601 271.8246,284.6811 L275.0596,283.3801 L275.0596,199.6081 Z" id="Fill-17"></path>
                <path d="M342.5977,307.5641 L319.0647,307.5641 L319.0647,199.6081 L342.3807,199.6081 L342.3807,206.3051 C352.8867,200.2581 362.8187,197.2351 372.1777,197.2351 C386.5687,197.2351 396.3947,201.3031 401.6477,209.4351 C406.9007,217.5661 409.5297,230.9941 409.5297,249.7041 L409.5297,307.5641 L386.2117,307.5641 L386.2117,250.3481 C386.2117,238.6881 384.9467,230.4171 382.4327,225.5201 C379.9147,220.6281 374.7677,218.1771 366.9927,218.1771 C359.6557,218.1771 352.5977,219.6181 345.8327,222.4971 L342.5977,223.7921 L342.5977,307.5641 Z" id="Fill-19"></path>
                <path d="M491.1641,285.109 L494.8281,283.597 L494.8281,219.689 C486.1951,218.25 478.2081,217.528 470.8661,217.528 C456.3211,217.528 449.0571,229.622 449.0571,253.805 C449.0571,267.046 450.7511,276.226 454.1361,281.33 C457.5161,286.443 462.8791,288.995 470.2161,288.995 C477.5621,288.995 484.5341,287.7 491.1641,285.109 L491.1641,285.109 Z M518.3661,154.703 L518.3661,307.564 L495.0451,307.564 L495.0451,301.951 C484.5341,307.281 474.8911,309.943 466.1141,309.943 C452.0081,309.943 441.6811,305.697 435.1331,297.199 C428.5801,288.711 425.3101,274.46 425.3101,254.456 C425.3101,234.446 428.9411,219.906 436.2111,210.836 C443.4761,201.77 454.8141,197.235 470.2161,197.235 C475.4011,197.235 483.6051,198.178 494.8281,200.042 L494.8281,154.703 L518.3661,154.703 Z" id="Fill-21"></path>
                <path d="M539.0488,307.5641 L539.0488,199.6081 L562.3658,199.6081 L562.3658,212.5691 C574.5948,204.6491 586.8338,199.5361 599.0718,197.2351 L599.0718,220.7731 C586.6898,223.2181 576.1118,226.3821 567.3298,230.2721 L562.5828,232.2121 L562.5828,307.5641 L539.0488,307.5641 Z" id="Fill-23"></path>
                <polygon id="Fill-25" points="605.8271 199.6081 628.9271 199.6081 651.8151 287.4831 657.6451 287.4831 680.5291 199.6081 703.8501 199.6081 662.8261 353.9861 639.7211 353.9861 652.6771 307.5641 634.1121 307.5641"></polygon>
            </g>
            <g id="icon">
                <path d="M311,306.0964 C311,309.2364 308.326,311.9994 305.191,311.9994 L5.949,311.9994 C2.815,311.9994 0,309.2364 0,306.0964 L0,6.8644 C0,3.7254 2.815,0.9994 5.949,0.9994 L305.191,0.9994 C308.326,0.9994 311,3.7254 311,6.8644 L311,306.0964 Z" id="icon-bg" fill="#353B59"></path>
                <polygon id="Fill-31" fill="#FFFFFF" points="75.202 91.176 127.073 91.176 127.073 37.041 75.202 37.041"></polygon>
                <polygon id="Fill-33" fill="#FFFFFF" points="131.6 91.176 183.456 91.176 183.456 37.041 131.6 37.041"></polygon>
                <polygon id="Fill-34" fill="#718CFF" points="187.973 149.807 239.834 149.807 239.834 95.682 187.973 95.682"></polygon>
                <polygon id="Fill-35" fill="#718CFF" points="187.9727 37.0417 187.9727 91.1767 239.8337 91.1767"></polygon>
                <polygon id="Fill-36" fill="#718CFF" points="187.9727 208.4391 239.8337 208.4391 187.9727 154.3191"></polygon>
                <polygon id="Fill-37" fill="#FFFFFF" points="131.6 208.439 183.456 208.439 183.456 154.319 131.6 154.319"></polygon>
                <polygon id="Fill-38" fill="#718CFF" points="187.973 267.09 239.834 267.09 239.834 212.955 187.973 212.955"></polygon>
                <polygon id="Fill-39" fill="#FFFFFF" points="75.202 149.807 127.073 149.807 127.073 95.682 75.202 95.682"></polygon>
                <polygon id="Fill-40" fill="#FFFFFF" points="75.202 208.439 127.073 208.439 127.073 154.319 75.202 154.319"></polygon>
                <polygon id="Fill-41" fill="#FFFFFF" points="75.202 267.09 127.073 267.09 127.073 212.955 75.202 212.955"></polygon>
            </g>
        </g>
    </g>
</svg>