<?xml version="1.0" encoding="UTF-8"?>
<svg width="643px" height="307px" viewBox="0 0 643 307" version="1.1" xmlns="http://www.w3.org/2000/svg" xmlns:xlink="http://www.w3.org/1999/xlink">
    <!-- Generator: Sketch 45.2 (43514) - http://www.bohemiancoding.com/sketch -->
    <title>raster-foundry-logo-vertical</title>
    <desc>Created with Sketch.</desc>
    <defs></defs>
    <g id="Page-1" stroke="none" stroke-width="1" fill="none" fill-rule="evenodd">
        <g id="raster-foundry-logo-vertical">
            <g id="text" transform="translate(0.000000, 208.000000)" fill="#464F77">
                <path d="M39.8672,26.2407 C39.8672,17.5877 35.7172,13.2637 27.4222,13.2637 L11.7072,13.2637 L11.7072,39.5257 L27.6332,39.5257 C31.8472,39.5257 34.9412,38.3127 36.9142,35.8867 C38.8792,33.4617 39.8672,30.2487 39.8672,26.2407 Z M11.7072,49.6507 L11.7072,75.3857 L0.0002,75.3857 L0.0002,3.1387 L27.4222,3.1387 C43.7302,3.1387 51.8902,10.8027 51.8902,26.1357 C51.8902,36.4007 47.9532,43.3577 40.0802,47.0137 L51.9962,75.3857 L39.1292,75.3857 L28.6852,49.6507 L11.7072,49.6507 Z" id="Fill-1"></path>
                <path d="M74.957,51.9712 C70.103,52.3972 67.678,55.0342 67.678,59.8812 C67.678,64.7372 69.82,67.1622 74.109,67.1622 C77.625,67.1622 81.352,66.5962 85.293,65.4712 L87.187,64.8382 L87.187,50.8102 L74.957,51.9712 Z M98.582,38.8972 L98.582,62.9442 C98.65,64.4912 99.053,65.6292 99.795,66.3672 C100.531,67.1082 101.672,67.5802 103.219,67.7912 L102.904,76.5452 C96.855,76.5452 92.182,75.2482 88.877,72.6472 C83.25,75.2482 77.594,76.5452 71.898,76.5452 C61.42,76.5452 56.182,70.9592 56.182,59.7752 C56.182,54.4362 57.607,50.5652 60.455,48.1732 C63.301,45.7842 67.678,44.3412 73.582,43.8502 L87.187,42.6902 L87.187,38.8972 C87.187,36.0842 86.574,34.1112 85.344,32.9872 C84.111,31.8662 82.305,31.3032 79.912,31.3032 C75.41,31.3032 69.787,31.5792 63.035,32.1432 L59.662,32.3532 L59.24,24.2332 C66.904,22.4052 73.955,21.4902 80.385,21.4902 C86.822,21.4902 91.459,22.8792 94.311,25.6572 C97.158,28.4362 98.582,32.8502 98.582,38.8972 L98.582,38.8972 Z" id="Fill-3"></path>
                <path d="M146.9258,33.5141 C138.6328,32.3931 132.6148,31.8301 128.8908,31.8301 C125.1638,31.8301 122.5818,32.2681 121.1408,33.1471 C119.6968,34.0261 118.9808,35.4111 118.9808,37.3101 C118.9808,39.2131 119.7678,40.5491 121.3498,41.3181 C122.9338,42.0961 126.6598,42.9911 132.5298,44.0081 C138.4028,45.0301 142.5688,46.6311 145.0308,48.8071 C147.4898,50.9911 148.7208,54.8581 148.7208,60.4121 C148.7208,65.9671 146.9438,70.0451 143.3928,72.6471 C139.8438,75.2481 134.6578,76.5451 127.8378,76.5451 C123.5468,76.5451 118.1328,75.9461 111.5958,74.7511 L108.3278,74.2241 L108.7498,64.6271 C117.1878,65.7511 123.2658,66.3141 126.9958,66.3141 C130.7228,66.3141 133.3748,65.8571 134.9548,64.9441 C136.5388,64.0341 137.3318,62.5181 137.3318,60.4121 C137.3318,58.2991 136.5708,56.8421 135.0608,56.0351 C133.5508,55.2231 129.9298,54.3441 124.1988,53.3991 C118.4668,52.4461 114.2618,50.9511 111.5958,48.9161 C108.9218,46.8731 107.5858,43.1471 107.5858,37.7321 C107.5858,32.3191 109.4338,28.2801 113.1248,25.6041 C116.8148,22.9321 121.5428,21.5961 127.3128,21.5961 C131.8108,21.5961 137.3318,22.1621 143.8668,23.2841 L147.1368,23.9201 L146.9258,33.5141 Z" id="Fill-5"></path>
                <path d="M185.2305,32.4585 L170.6775,32.4585 L170.6775,55.6625 C170.6775,59.9555 170.9945,62.7985 171.6255,64.2045 C172.2575,65.6155 173.8755,66.3135 176.4785,66.3135 L185.1255,65.9985 L185.6525,75.1745 C180.9415,76.0885 177.3575,76.5455 174.8945,76.5455 C168.9195,76.5455 164.8245,75.1745 162.6095,72.4365 C160.3945,69.6885 159.2855,64.5255 159.2855,56.9285 L159.2855,32.4585 L152.5375,32.4585 L152.5375,22.6505 L159.2855,22.6505 L159.2855,7.3615 L170.6775,7.3615 L170.6775,22.6505 L185.2305,22.6505 L185.2305,32.4585 Z" id="Fill-7"></path>
                <path d="M222.4609,45.0141 C222.4609,39.8071 221.6329,36.1701 219.9809,34.0931 C218.3279,32.0221 215.5349,30.9871 211.5979,30.9871 C207.6579,30.9871 204.7969,32.0731 203.0019,34.2521 C201.2069,36.4311 200.2739,40.0181 200.2049,45.0141 L222.4609,45.0141 Z M228.7889,65.8931 L231.7399,65.5801 L231.9509,74.1191 C223.9359,75.7371 216.8359,76.5451 210.6469,76.5451 C202.8419,76.5451 197.2339,74.4051 193.8219,70.1121 C190.4139,65.8261 188.7109,58.9671 188.7109,49.5491 C188.7109,30.8421 196.3359,21.4901 211.5979,21.4901 C226.3609,21.4901 233.7459,29.5451 233.7459,45.6421 L233.0079,53.8681 L200.3109,53.8681 C200.3789,58.2331 201.3299,61.4321 203.1579,63.4711 C204.9879,65.5101 208.3949,66.5261 213.3889,66.5261 C218.3829,66.5261 223.5159,66.3141 228.7889,65.8931 L228.7889,65.8931 Z" id="Fill-9"></path>
                <path d="M241.1289,75.3852 L241.1289,22.6512 L252.5199,22.6512 L252.5199,28.9792 C258.4959,25.1122 264.4709,22.6192 270.4489,21.4892 L270.4489,32.9872 C264.4019,34.1862 259.2339,35.7332 254.9429,37.6262 L252.6229,38.5762 L252.6229,75.3852 L241.1289,75.3852 Z" id="Fill-11"></path>
                <polygon id="Fill-13" points="299.5547 75.3852 299.5547 3.1392 344.3787 3.1392 344.3787 13.3732 311.2637 13.3732 311.2637 37.7322 338.7887 37.7322 338.7887 47.9632 311.2637 47.9632 311.2637 75.3852"></polygon>
                <path d="M360.6641,62.6274 C362.2791,65.4354 365.4431,66.8414 370.1521,66.8414 C374.8631,66.8414 378.0271,65.4354 379.6481,62.6274 C381.2641,59.8144 382.0741,55.2044 382.0741,48.8074 C382.0741,42.4124 381.2131,37.8734 379.4881,35.2004 C377.7681,32.5334 374.6521,31.1934 370.1521,31.1934 C365.6541,31.1934 362.5471,32.5334 360.8201,35.2004 C359.1001,37.8734 358.2381,42.4124 358.2381,48.8074 C358.2381,55.2044 359.0431,59.8144 360.6641,62.6274 M352.0681,28.3504 C355.6871,23.7794 361.7171,21.4894 370.1521,21.4894 C378.5941,21.4894 384.6191,23.7794 388.2441,28.3504 C391.8651,32.9154 393.6761,39.7754 393.6761,48.9164 C393.6761,58.0574 391.9181,64.9434 388.4021,69.5844 C384.8871,74.2244 378.8091,76.5454 370.1521,76.5454 C361.5081,76.5454 355.4241,74.2244 351.9081,69.5844 C348.3931,64.9434 346.6351,58.0574 346.6351,48.9164 C346.6351,39.7754 348.4471,32.9154 352.0681,28.3504" id="Fill-15"></path>
                <path d="M433.5234,22.6508 L444.9124,22.6508 L444.9124,75.3848 L433.5234,75.3848 L433.5234,72.1148 C428.3864,75.0728 423.6364,76.5458 419.2814,76.5458 C412.0414,76.5458 407.1874,74.5958 404.7304,70.6908 C402.2654,66.7898 401.0354,59.9558 401.0354,50.1778 L401.0354,22.6508 L412.5354,22.6508 L412.5354,50.2878 C412.5354,56.6158 413.0604,60.8698 414.1134,63.0488 C415.1714,65.2288 417.6284,66.3138 421.4964,66.3138 C425.2914,66.3138 428.7774,65.6158 431.9394,64.2048 L433.5234,63.5728 L433.5234,22.6508 Z" id="Fill-17"></path>
                <path d="M466.459,75.3852 L454.965,75.3852 L454.965,22.6512 L466.352,22.6512 L466.352,25.9202 C471.484,22.9672 476.336,21.4892 480.91,21.4892 C487.938,21.4892 492.738,23.4792 495.307,27.4512 C497.871,31.4262 499.156,37.9832 499.156,47.1232 L499.156,75.3852 L487.762,75.3852 L487.762,47.4362 C487.762,41.7402 487.15,37.7012 485.918,35.3072 C484.688,32.9152 482.172,31.7212 478.379,31.7212 C474.789,31.7212 471.348,32.4282 468.041,33.8302 L466.459,34.4672 L466.459,75.3852 Z" id="Fill-19"></path>
                <path d="M538.9766,64.4155 L540.7716,63.6775 L540.7716,32.4585 C536.5526,31.7605 532.6526,31.4085 529.0626,31.4085 C521.9626,31.4085 518.4106,37.3105 518.4106,49.1235 C518.4106,55.5965 519.2386,60.0765 520.8906,62.5705 C522.5426,65.0665 525.1636,66.3135 528.7466,66.3135 C532.3356,66.3135 535.7406,65.6865 538.9766,64.4155 L538.9766,64.4155 Z M552.2656,0.7125 L552.2656,75.3855 L540.8786,75.3855 L540.8786,72.6465 C535.7406,75.2485 531.0296,76.5455 526.7466,76.5455 C519.8536,76.5455 514.8066,74.4755 511.6076,70.3215 C508.4086,66.1745 506.8106,59.2175 506.8106,49.4435 C506.8106,39.6705 508.5856,32.5635 512.1326,28.1345 C515.6856,23.7055 521.2266,21.4895 528.7466,21.4895 C531.2796,21.4895 535.2886,21.9475 540.7716,22.8605 L540.7716,0.7125 L552.2656,0.7125 Z" id="Fill-21"></path>
                <path d="M562.3184,75.3852 L562.3184,22.6512 L573.7074,22.6512 L573.7074,28.9792 C579.6854,25.1122 585.6604,22.6192 591.6364,21.4892 L591.6364,32.9872 C585.5894,34.1862 580.4234,35.7332 576.1324,37.6262 L573.8124,38.5762 L573.8124,75.3852 L562.3184,75.3852 Z" id="Fill-23"></path>
                <polygon id="Fill-25" points="594.8965 22.6508 606.1815 22.6508 617.3595 65.5808 620.2075 65.5808 631.3865 22.6508 642.7785 22.6508 622.7385 98.0608 611.4555 98.0608 617.7815 75.3848 608.7145 75.3848"></polygon>
            </g>
            <g id="icon" transform="translate(226.000000, 0.000000)">
                <path d="M179.3887,175.7192 C179.3887,177.5312 177.9197,179.0002 176.1077,179.0002 L3.6697,179.0002 C1.8577,179.0002 0.3887,177.5312 0.3887,175.7192 L0.3887,3.2822 C0.3887,1.4692 1.8577,0.0002 3.6697,0.0002 L176.1077,0.0002 C177.9197,0.0002 179.3887,1.4692 179.3887,3.2822 L179.3887,175.7192 Z" id="Fill-28" fill="#464F77"></path>
                <polygon id="Fill-30" fill="#FFFFFF" points="43.721 53.893 73.709 53.893 73.709 22.6 43.721 22.6"></polygon>
                <polygon id="Fill-32" fill="#FFFFFF" points="76.324 53.893 106.301 53.893 106.301 22.6 76.324 22.6"></polygon>
                <polygon id="Fill-33" fill="#718CFF" points="108.916 87.788 138.895 87.788 138.895 56.501 108.916 56.501"></polygon>
                <polygon id="Fill-34" fill="#718CFF" points="108.916 22.6001 108.916 53.8931 138.895 53.8931"></polygon>
                <polygon id="Fill-35" fill="#718CFF" points="108.916 121.6821 138.895 121.6821 108.916 90.3961"></polygon>
                <polygon id="Fill-36" fill="#FFFFFF" points="76.324 121.682 106.301 121.682 106.301 90.396 76.324 90.396"></polygon>
                <polygon id="Fill-37" fill="#718CFF" points="108.916 155.586 138.895 155.586 138.895 124.293 108.916 124.293"></polygon>
                <polygon id="Fill-38" fill="#FFFFFF" points="43.721 87.788 73.709 87.788 73.709 56.501 43.721 56.501"></polygon>
                <polygon id="Fill-39" fill="#FFFFFF" points="43.721 121.682 73.709 121.682 73.709 90.396 43.721 90.396"></polygon>
                <polygon id="Fill-40" fill="#FFFFFF" points="43.721 155.586 73.709 155.586 73.709 124.293 43.721 124.293"></polygon>
            </g>
        </g>
    </g>
</svg>