<?xml version="1.0" encoding="UTF-8"?>
<svg width="7px" height="11px" viewBox="0 0 7 11" version="1.1" xmlns="http://www.w3.org/2000/svg" xmlns:xlink="http://www.w3.org/1999/xlink">
    <!-- Generator: Sketch 45.2 (43514) - http://www.bohemiancoding.com/sketch -->
    <title>dropdown-bg</title>
    <desc>Created with Sketch.</desc>
    <defs></defs>
    <g id="Page-1" stroke="none" stroke-width="1" fill="none" fill-rule="evenodd">
        <g id="dropdown-bg" fill="#FFFFFF">
            <path d="M0.1821,6.6396 C0.4331,6.3836 0.7821,6.3636 1.0881,6.6396 L3.3351,8.7946 L5.5821,6.6396 C5.8891,6.3636 6.2391,6.3836 6.4881,6.6396 C6.7381,6.8956 6.7221,7.3276 6.4881,7.5686 C6.2541,7.8086 3.7881,10.1576 3.7881,10.1576 C3.6631,10.2856 3.4991,10.3496 3.3351,10.3496 C3.1711,10.3496 3.0081,10.2856 2.8821,10.1576 C2.8821,10.1576 0.4161,7.8086 0.1821,7.5686 C-0.0529,7.3276 -0.0679,6.8956 0.1821,6.6396" id="Fill-1"></path>
            <path d="M6.4888,3.71 C6.2378,3.966 5.8888,3.986 5.5828,3.71 L3.3358,1.555 L1.0888,3.71 C0.7818,3.986 0.4318,3.966 0.1828,3.71 C-0.0672,3.454 -0.0522,3.022 0.1828,2.781 C0.4168,2.541 2.8828,0.192 2.8828,0.192 C3.0078,0.064 3.1718,0 3.3358,0 C3.4998,0 3.6628,0.064 3.7888,0.192 C3.7888,0.192 6.2548,2.541 6.4888,2.781 C6.7238,3.022 6.7398,3.454 6.4888,3.71" id="Fill-3"></path>
        </g>
    </g>
</svg>